<svg xmlns:dc="http://purl.org/dc/elements/1.1/" xmlns:cc="http://creativecommons.org/ns#" xmlns:rdf="http://www.w3.org/1999/02/22-rdf-syntax-ns#" xmlns:svg="http://www.w3.org/2000/svg" xmlns="http://www.w3.org/2000/svg" viewBox="0 0 180 180"><metadata><rdf:RDF><cc:Work><dc:format>image/svg+xml</dc:format><dc:type rdf:resource="http://purl.org/dc/dcmitype/StillImage"/><dc:title>Bottts</dc:title><dc:creator><cc:Agent><dc:title>Pablo Stanley</dc:title></cc:Agent></dc:creator><dc:source>https://bottts.com/</dc:source><cc:license rdf:resource="https://bottts.com/"/><dc:contributor><cc:Agent><dc:title>Florian Körner</dc:title></cc:Agent></dc:contributor></cc:Work></rdf:RDF></metadata><mask id="avatarsRadiusMask"><rect width="180" height="180" rx="0" ry="0" x="0" y="0" fill="#fff"/></mask><g mask="url(#avatarsRadiusMask)"><g transform="translate(0, 66)"><path fill-rule="evenodd" clip-rule="evenodd" d="M13 11H11V31H12.4C10.1598 31 9.03969 31 8.18404 31.436C7.43139 31.8195 6.81947 32.4314 6.43597 33.184C6 34.0397 6 35.1598 6 37.4V38.6C6 40.8402 6 41.9603 6.43597 42.816C6.81947 43.5686 7.43139 44.1805 8.18404 44.564C9.03969 45 10.1598 45 12.4 45H18V55.6C18 57.8402 18 58.9603 18.436 59.816C18.8195 60.5686 19.4314 61.1805 20.184 61.564C21.0397 62 22.1598 62 24.4 62H47.6C49.8402 62 50.9603 62 51.816 61.564C52.5686 61.1805 53.1805 60.5686 53.564 59.816C54 58.9603 54 57.8402 54 55.6V20.4C54 18.1598 54 17.0397 53.564 16.184C53.1805 15.4314 52.5686 14.8195 51.816 14.436C50.9603 14 49.8402 14 47.6 14H24.4C22.1598 14 21.0397 14 20.184 14.436C19.4314 14.8195 18.8195 15.4314 18.436 16.184C18 17.0397 18 18.1598 18 20.4V31H13V11ZM126 34.4C126 32.1598 126 31.0397 126.436 30.184C126.819 29.4314 127.431 28.8195 128.184 28.436C129.04 28 130.16 28 132.4 28H155.6C157.84 28 158.96 28 159.816 28.436C160.569 28.8195 161.181 29.4314 161.564 30.184C162 31.0397 162 32.1598 162 34.4V45.6C162 47.8402 162 48.9603 161.564 49.816C161.181 50.5686 160.569 51.1805 159.816 51.564C158.96 52 157.84 52 155.6 52H132.4C130.16 52 129.04 52 128.184 51.564C127.431 51.1805 126.819 50.5686 126.436 49.816C126 48.9603 126 47.8402 126 45.6V34.4Z" fill="#0076DE"/><mask id="sidesAntenna01Mask0" mask-type="alpha" maskUnits="userSpaceOnUse" x="6" y="11" width="156" height="51"><path fill-rule="evenodd" clip-rule="evenodd" d="M13 11H11V31H12.4C10.1598 31 9.03969 31 8.18404 31.436C7.43139 31.8195 6.81947 32.4314 6.43597 33.184C6 34.0397 6 35.1598 6 37.4V38.6C6 40.8402 6 41.9603 6.43597 42.816C6.81947 43.5686 7.43139 44.1805 8.18404 44.564C9.03969 45 10.1598 45 12.4 45H18V55.6C18 57.8402 18 58.9603 18.436 59.816C18.8195 60.5686 19.4314 61.1805 20.184 61.564C21.0397 62 22.1598 62 24.4 62H47.6C49.8402 62 50.9603 62 51.816 61.564C52.5686 61.1805 53.1805 60.5686 53.564 59.816C54 58.9603 54 57.8402 54 55.6V20.4C54 18.1598 54 17.0397 53.564 16.184C53.1805 15.4314 52.5686 14.8195 51.816 14.436C50.9603 14 49.8402 14 47.6 14H24.4C22.1598 14 21.0397 14 20.184 14.436C19.4314 14.8195 18.8195 15.4314 18.436 16.184C18 17.0397 18 18.1598 18 20.4V31H13V11ZM126 34.4C126 32.1598 126 31.0397 126.436 30.184C126.819 29.4314 127.431 28.8195 128.184 28.436C129.04 28 130.16 28 132.4 28H155.6C157.84 28 158.96 28 159.816 28.436C160.569 28.8195 161.181 29.4314 161.564 30.184C162 31.0397 162 32.1598 162 34.4V45.6C162 47.8402 162 48.9603 161.564 49.816C161.181 50.5686 160.569 51.1805 159.816 51.564C158.96 52 157.84 52 155.6 52H132.4C130.16 52 129.04 52 128.184 51.564C127.431 51.1805 126.819 50.5686 126.436 49.816C126 48.9603 126 47.8402 126 45.6V34.4Z" fill="white"/></mask><g mask="url(#sidesAntenna01Mask0)"><rect width="180" height="76" fill="#5C6BC0"/><rect y="38" width="180" height="38" fill="black" fill-opacity="0.1"/></g><rect x="11" y="11" width="2" height="20" fill="white" fill-opacity="0.4"/><path fill-rule="evenodd" clip-rule="evenodd" d="M12 12C14.2091 12 16 10.2091 16 8C16 5.79086 14.2091 4 12 4C9.79086 4 8 5.79086 8 8C8 10.2091 9.79086 12 12 12Z" fill="#FFEA8F"/><path fill-rule="evenodd" clip-rule="evenodd" d="M13 9C14.1046 9 15 8.10457 15 7C15 5.89543 14.1046 5 13 5C11.8954 5 11 5.89543 11 7C11 8.10457 11.8954 9 13 9Z" fill="white"/></g><g transform="translate(41, 0)"><path fill-rule="evenodd" clip-rule="evenodd" d="M71.2104 40C78.8499 33.2931 84.6313 20.6882 84 14C83.8635 12.5535 85.9998 12.2993 87 14C91.418 21.5124 89.7172 36.0672 89.1535 40H92V52H66V40H71.2104ZM16.521 13.7408C16.521 21.2733 21.4918 33.445 29.2618 40H34V52H8V40H11.2251C10.6299 36.4414 8.52929 21.6012 13.4337 14.1009C14.3353 12.7219 16.521 12.6807 16.521 13.7408Z" fill="#E1E6E8"/><mask id="topHornsMask0" mask-type="alpha" maskUnits="userSpaceOnUse" x="8" y="12" width="84" height="40"><path fill-rule="evenodd" clip-rule="evenodd" d="M71.2104 40C78.8499 33.2931 84.6313 20.6882 84 14C83.8635 12.5535 85.9998 12.2993 87 14C91.418 21.5124 89.7172 36.0672 89.1535 40H92V52H66V40H71.2104ZM16.521 13.7408C16.521 21.2733 21.4918 33.445 29.2618 40H34V52H8V40H11.2251C10.6299 36.4414 8.52929 21.6012 13.4337 14.1009C14.3353 12.7219 16.521 12.6807 16.521 13.7408Z" fill="white"/></mask><g mask="url(#topHornsMask0)"><rect width="100" height="52" fill="#5C6BC0"/><rect y="40" width="100" height="12" fill="black" fill-opacity="0.4"/><path fill-rule="evenodd" clip-rule="evenodd" d="M15.4558 13H31.5689V40H20.8201C13.3712 32.1499 15.4558 13 15.4558 13Z" fill="white" fill-opacity="0.4"/><path fill-rule="evenodd" clip-rule="evenodd" d="M84.8203 13H92.5691V40H81.8203C87.5713 32.1946 84.8203 13 84.8203 13Z" fill="white" fill-opacity="0.4"/></g></g><g transform="translate(25, 44)"><path fill-rule="evenodd" clip-rule="evenodd" d="M0 31C0 31.0205 0.0141049 30.8164 0 30C0.183375 29.5235 0.402009 28.5029 1 27C1.82671 23.944 3.7804 20.4435 7 17C16.6944 6.60017 35.1724 0 65 0C94.8276 0 113.306 6.60036 123 17C126.22 20.4435 128.173 23.944 129 27C129.598 28.5029 129.817 29.5236 130 30C129.986 30.8164 130 31.0205 130 31V70C130 69.8964 129.972 70.5012 130 71C129.739 73.1171 129.471 75.0149 129 77C127.814 82.9912 125.606 88.911 122 94C112.283 110.337 94.2553 120 65 120C35.7448 120 17.7164 110.338 8 94C4.39414 88.9108 2.1865 82.9912 1 77C0.529043 75.0149 0.261028 73.1171 0 71C0.0282767 70.5466 6.49997e-05 69.6771 0 70V31Z" fill="#E1E6E8"/><mask id="faceRound02Mask0" mask-type="alpha" maskUnits="userSpaceOnUse" x="0" y="0" width="130" height="120"><path fill-rule="evenodd" clip-rule="evenodd" d="M0 31C0 31.0205 0.0141049 30.8164 0 30C0.183375 29.5235 0.402009 28.5029 1 27C1.82671 23.944 3.7804 20.4435 7 17C16.6944 6.60017 35.1724 0 65 0C94.8276 0 113.306 6.60036 123 17C126.22 20.4435 128.173 23.944 129 27C129.598 28.5029 129.817 29.5236 130 30C129.986 30.8164 130 31.0205 130 31V70C130 69.8964 129.972 70.5012 130 71C129.739 73.1171 129.471 75.0149 129 77C127.814 82.9912 125.606 88.911 122 94C112.283 110.337 94.2553 120 65 120C35.7448 120 17.7164 110.338 8 94C4.39414 88.9108 2.1865 82.9912 1 77C0.529043 75.0149 0.261028 73.1171 0 71C0.0282767 70.5466 6.49997e-05 69.6771 0 70V31Z" fill="white"/></mask><g mask="url(#faceRound02Mask0)"><rect x="-4" y="-2" width="138" height="124" fill="#3949AB"/><path fill-rule="evenodd" clip-rule="evenodd" d="M120 130.649C116.812 113.308 110.453 128.073 95.1523 125.017C88.3923 123.666 93.8542 117.769 88.8124 115.213C84.5536 113.054 78.7499 114.793 73.8715 113.397C66.8312 111.382 66.9237 107.282 60.3639 106.669C54.1604 106.09 47.6616 107.999 41.4049 107.282C29.5967 105.928 34.4383 88.0585 25.5835 84.9025C16.7287 81.7465 2.15043 87.1967 0.242157 96.1317C-1.61816 104.842 10.8129 137.252 10.8129 137.252H120" fill="black" fill-opacity="0.2"/><path fill-rule="evenodd" clip-rule="evenodd" d="M156 122.767C104.757 122.767 99.4219 96.9746 74.2092 85.1582C48.9964 73.3418 26.9059 103.905 18.4298 74.2122C9.9537 44.5195 10.0005 137.072 10.0005 137.072H156V122.767Z" fill="black" fill-opacity="0.1"/><path fill-rule="evenodd" clip-rule="evenodd" d="M161.575 9.17587C149.64 8.20079 156.546 19.9843 151.83 19.9843C144.863 19.9843 149.727 12.0062 141.247 12.2048C139.028 12.2568 136.303 14.1443 136.135 16.709C135.773 22.2193 139.852 31.7253 134.297 31.9953C129.117 32.247 133.193 22.3562 132.652 15.7593C132.343 11.9871 128.47 9.00745 125.684 9.00745C118.113 9.00745 123.998 24.7147 118.549 24.7147C113.1 24.7147 117.341 15.6639 113.467 10.8715C108.964 5.29973 94.1677 2.55906 104.718 0H161.867" fill="black" fill-opacity="0.4"/></g></g><g transform="translate(52, 124)"><rect x="12" y="12" width="4" height="8" rx="2" fill="black" fill-opacity="0.6"/><rect x="36" y="12" width="4" height="8" rx="2" fill="black" fill-opacity="0.6"/><rect x="24" y="12" width="4" height="8" rx="2" fill="black" fill-opacity="0.6"/><rect x="48" y="12" width="4" height="8" rx="2" fill="black" fill-opacity="0.6"/><rect x="60" y="12" width="4" height="8" rx="2" fill="black" fill-opacity="0.6"/></g><g transform="translate(38, 76)"><path fill-rule="evenodd" clip-rule="evenodd" d="M0 10C0 5.58172 3.58172 2 8 2H96C100.418 2 104 5.58172 104 10V28C104 32.4183 100.418 36 96 36H82.9808C79.7112 36.1672 77.4997 37.137 76.0046 38.3473C75.5176 38.7414 75.0239 39.1634 74.5216 39.5927C72.0465 41.7082 69.3652 44 66.2779 44H52H38.6676C35.5324 44 32.732 41.8707 30.0462 39.8285L30.0461 39.8285C29.096 39.1061 28.1602 38.3945 27.229 37.792C25.7725 36.8497 23.7704 36.1407 21.0192 36H8C3.58172 36 0 32.4183 0 28V10Z" fill="black" fill-opacity="0.8"/><mask id="eyesShade01Mask0" mask-type="alpha" maskUnits="userSpaceOnUse" x="0" y="2" width="104" height="42"><path fill-rule="evenodd" clip-rule="evenodd" d="M0 10C0 5.58172 3.58172 2 8 2H96C100.418 2 104 5.58172 104 10V28C104 32.4183 100.418 36 96 36H82.9808C79.7112 36.1672 77.4997 37.137 76.0046 38.3473C75.5176 38.7414 75.0239 39.1634 74.5216 39.5927C72.0465 41.7082 69.3652 44 66.2779 44H52H38.6676C35.5324 44 32.732 41.8707 30.0462 39.8285L30.0461 39.8285C29.096 39.1061 28.1602 38.3945 27.229 37.792C25.7725 36.8497 23.7704 36.1407 21.0192 36H8C3.58172 36 0 32.4183 0 28V10Z" fill="white"/></mask><g mask="url(#eyesShade01Mask0)"><path fill-rule="evenodd" clip-rule="evenodd" d="M12 19C12 16.2386 14.2386 14 17 14H87C89.7614 14 92 16.2386 92 19V21C92 23.7614 89.7614 26 87 26H74.9808C71.7112 26.1672 69.4997 27.137 68.0046 28.3473C67.5176 28.7414 67.0239 29.1634 66.5216 29.5927C64.5182 31.3051 62.3796 33.133 60 33.7674V34H58.2779H52H46.6676C43.5324 34 40.732 31.8707 38.0462 29.8285L38.0461 29.8285C37.096 29.1061 36.1602 28.3945 35.229 27.792C33.7725 26.8497 31.7704 26.1407 29.0192 26H17C14.2386 26 12 23.7614 12 21V19Z" fill="#FF3D3D"/><path fill-rule="evenodd" clip-rule="evenodd" d="M12 44L32 -2H28L8 44H12ZM50 -2H39L19 44H30L50 -2Z" fill="white" fill-opacity="0.2"/></g></g></g></svg>